<svg width="15" height="14" viewBox="0 0 15 14" fill="none" xmlns="http://www.w3.org/2000/svg">
<path fill-rule="evenodd" clip-rule="evenodd" d="M5.46302 3.29688C4.60729 3.4448 3.98385 4.1698 3.88177 5.0323L3.125 11.4583H11.4583L10.7 5.02345C10.599 4.16511 9.98125 3.44168 9.13021 3.29272C7.85417 3.06928 6.79063 3.0672 5.46302 3.29688ZM6.10937 5.54584C6.12305 5.41053 6.08325 5.27524 5.99849 5.16889C5.91373 5.06253 5.79073 4.99355 5.65578 4.97668C5.52083 4.95981 5.38464 4.99639 5.27631 5.07861C5.16797 5.16083 5.0961 5.28216 5.07604 5.41668L4.60469 9.18647C4.59445 9.25514 4.59804 9.32517 4.61526 9.39244C4.63248 9.4597 4.66297 9.52285 4.70495 9.57815C4.74693 9.63346 4.79954 9.67982 4.85969 9.7145C4.91985 9.74918 4.98633 9.77148 5.05522 9.78009C5.12412 9.7887 5.19405 9.78345 5.26089 9.76465C5.32772 9.74584 5.39013 9.71386 5.44443 9.67059C5.49873 9.62732 5.54383 9.57362 5.57707 9.51266C5.61032 9.45171 5.63104 9.38472 5.63802 9.31563L6.10937 5.54584Z" fill="white"/>
<path fill-rule="evenodd" clip-rule="evenodd" d="M6.4972 4.20678C6.7275 4.37029 6.90917 4.59316 7.02289 4.8517C7.13662 5.11023 7.17814 5.39476 7.14303 5.67501L6.6722 9.4448C6.62324 9.83543 6.4347 10.174 6.16178 10.4167H10.2868L9.66595 5.14532C9.61283 4.6922 9.29928 4.3797 8.95137 4.31876C8.08105 4.16668 7.33158 4.12761 6.4972 4.20678ZM10.7003 5.02345C10.5993 4.16511 9.98158 3.44168 9.13053 3.29272C7.85449 3.06928 6.79095 3.0672 5.46335 3.29688C4.60762 3.4448 3.98418 4.1698 3.8821 5.0323L3.12533 11.4583H11.4587L10.7003 5.02345ZM6.1097 5.54584L5.63835 9.31563C5.63137 9.38472 5.61064 9.45171 5.5774 9.51266C5.54415 9.57362 5.49905 9.62732 5.44475 9.67059C5.39045 9.71386 5.32805 9.74584 5.26121 9.76465C5.19437 9.78345 5.12445 9.7887 5.05555 9.78009C4.98665 9.77148 4.92017 9.74918 4.86002 9.7145C4.79986 9.67982 4.74725 9.63346 4.70527 9.57815C4.6633 9.52285 4.6328 9.4597 4.61559 9.39244C4.59837 9.32517 4.59477 9.25514 4.60501 9.18647L5.07637 5.41668C5.08335 5.34759 5.10407 5.2806 5.13731 5.21965C5.17056 5.15869 5.21566 5.10499 5.26996 5.06172C5.32426 5.01845 5.38666 4.98647 5.4535 4.96766C5.52034 4.94886 5.59027 4.9436 5.65916 4.95222C5.72806 4.96083 5.79454 4.98313 5.8547 5.01781C5.91485 5.05249 5.96746 5.09885 6.00944 5.15416C6.05142 5.20946 6.08191 5.27261 6.09913 5.33987C6.11635 5.40714 6.11994 5.47717 6.1097 5.54584ZM11.9795 13.5417H2.60449V12.5H11.9795V13.5417Z" fill="white"/>
<path d="M1.5625 7.29167C1.5625 7.46701 1.57031 7.64062 1.58594 7.8125H0V6.77083H1.58594C1.57031 6.94271 1.5625 7.11632 1.5625 7.29167ZM2.61042 3.9875C2.40959 4.27174 2.23509 4.57368 2.08906 4.88958L0.716667 4.09687L1.2375 3.19479L2.61042 3.9875ZM4.88958 2.08854C4.57153 2.23646 4.27083 2.41042 3.9875 2.61042L3.19479 1.2375L4.09687 0.716667L4.88958 2.08854ZM7.29167 1.5625C7.11632 1.5625 6.94271 1.57031 6.77083 1.58594V0H7.8125V1.58594C7.63933 1.57023 7.46554 1.5624 7.29167 1.5625ZM10.5958 2.61042C10.3116 2.40959 10.0097 2.23509 9.69375 2.08906L10.4865 0.716667L11.3885 1.2375L10.5958 2.61042ZM12.4948 4.88958C12.3486 4.57366 12.1739 4.27172 11.9729 3.9875L13.3458 3.19479L13.8667 4.09687L12.4948 4.88958ZM13.0208 7.29167C13.0208 7.11632 13.013 6.94271 12.9974 6.77083H14.5833V7.8125H12.9974C13.013 7.64062 13.0208 7.46701 13.0208 7.29167Z" fill="white"/>
</svg>
